<svg width="16" height="15" viewBox="0 0 16 15" fill="none" xmlns="http://www.w3.org/2000/svg">
<path fill-rule="evenodd" clip-rule="evenodd" d="M2.30948 7.28449C0.91518 5.92339 0.91518 3.69893 2.30471 2.30943C3.66581 0.915134 5.89027 1.91513 7.28217 3.30703L8.00015 4.02497L8.71576 3.30943C8.71745 3.3077 8.71914 3.30597 8.72084 3.30424C8.73752 3.28722 8.75432 3.27042 8.77126 3.25382C10.1029 1.94848 12.2126 0.933776 13.5877 2.20547L13.6908 2.30466C15.0851 3.66576 15.0851 5.89022 13.6932 7.28212L8.00015 12.9752L2.30948 7.28449ZM7.99869 2.24568C6.11202 0.536722 3.21133 -0.421828 1.40616 1.42162C-0.464515 3.298 -0.477959 6.32243 1.42127 8.18266L8.00015 14.7616L14.5864 8.17531C16.4661 6.29558 16.4807 3.26285 14.5732 1.40078L14.4544 1.28648L14.4453 1.27809C12.6224 -0.407778 9.82355 0.566753 7.99869 2.24568Z" fill="#757575"/>
</svg>
