<svg width="20" height="18" viewBox="0 0 20 18" fill="none" xmlns="http://www.w3.org/2000/svg">
<path fill-rule="evenodd" clip-rule="evenodd" d="M9.98822 3.55386C10.2135 3.25923 10.4194 2.95715 10.6577 2.68396C11.2985 1.94553 12.0796 1.41689 13.026 1.16608C15.4526 0.524617 18.0214 1.90824 18.5717 4.56174C18.664 5.00741 18.677 5.45774 18.664 5.91087C18.6446 6.53834 18.5782 7.16023 18.4295 7.77093C18.183 8.78533 17.6927 9.67108 17.0325 10.4682C16.4738 11.1433 15.8441 11.7484 15.1922 12.3283C14.1719 13.2374 13.1405 14.1315 12.1239 15.0443C11.4296 15.6662 10.7528 16.3086 10.0686 16.9416C10.0482 16.9593 10.0288 16.978 10.0058 17.0004C9.98822 16.9864 9.97068 16.9743 9.9559 16.9593C8.66506 15.7193 7.32343 14.5371 5.97626 13.3604C5.15817 12.6453 4.33639 11.933 3.58201 11.1489C3.00584 10.5503 2.48599 9.90883 2.10003 9.16667C1.75654 8.50656 1.54602 7.80356 1.43891 7.06886C1.35304 6.48706 1.31887 5.90247 1.34196 5.31602C1.41306 3.53521 2.44813 1.97071 4.09078 1.34789C5.98549 0.629973 7.67061 1.03835 9.12581 2.44342C9.44991 2.75576 9.71768 3.11472 9.95314 3.49792C9.96422 3.51656 9.97622 3.53521 9.98822 3.55386Z" stroke="#FF0071" stroke-width="1.2" stroke-linejoin="round"/>
</svg>
